<?xml version="1.0" standalone="no"?>
<!DOCTYPE svg PUBLIC "-//W3C//DTD SVG 20010904//EN"
 "http://www.w3.org/TR/2001/REC-SVG-20010904/DTD/svg10.dtd">
<svg version="1.0" xmlns="http://www.w3.org/2000/svg"
 width="700.000000pt" height="700.000000pt" viewBox="0 0 700.000000 700.000000"
 preserveAspectRatio="xMidYMid meet">
<metadata>
Created by potrace 1.11, written by Peter Selinger 2001-2013
</metadata>
<g transform="translate(0.000000,700.000000) scale(0.100000,-0.100000)"
fill="#000000" stroke="none">
<path d="M3015 6316 l-479 -481 -676 -1 c-372 0 -680 -3 -686 -6 -5 -4 -9
-268 -8 -684 l0 -678 -482 -483 -482 -482 482 -483 483 -483 -1 -670 c-1 -369
0 -677 2 -685 3 -13 86 -15 685 -13 l682 2 482 -483 483 -484 482 483 483 484
677 -1 c372 0 681 2 685 5 4 3 8 310 7 684 l-1 678 483 483 482 482 -482 483
-482 483 1 674 c0 371 -1 680 -2 685 -2 7 -239 10 -686 9 l-682 0 -466 465
c-256 256 -474 473 -485 482 -18 15 -43 -9 -499 -465z m817 -1471 c22 -60 53
-146 68 -190 16 -44 78 -219 139 -390 60 -170 183 -515 272 -765 89 -250 181
-511 206 -580 24 -69 48 -136 53 -150 4 -14 38 -108 75 -210 37 -102 69 -194
72 -206 5 -20 2 -20 -271 -21 l-275 0 -11 31 c-6 17 -49 140 -96 274 -46 134
-88 251 -93 261 -9 17 -40 18 -474 18 l-463 0 -58 -166 c-31 -91 -61 -175 -66
-186 -5 -11 -16 -42 -25 -70 -9 -27 -25 -75 -36 -106 l-20 -56 -278 0 -278 0
23 61 c34 92 73 201 194 546 61 173 115 324 120 335 8 20 153 428 232 655 22
63 44 124 48 135 5 11 48 130 95 265 48 135 99 281 115 325 16 44 45 125 65
180 20 55 38 105 40 112 3 9 78 11 296 10 l291 -2 40 -110z"/>
<path d="M3488 4338 c-3 -13 -36 -117 -73 -233 -37 -115 -73 -230 -80 -255 -7
-25 -47 -153 -89 -284 -42 -132 -76 -243 -76 -248 0 -4 149 -8 330 -8 216 0
330 3 330 10 0 6 -43 146 -96 313 -53 166 -126 398 -162 515 -37 116 -69 212
-73 212 -4 0 -9 -10 -11 -22z"/>
</g>
</svg>
